<svg id="visual" viewBox="0 0 900 600" width="900" height="600" xmlns="http://www.w3.org/2000/svg" xmlns:xlink="http://www.w3.org/1999/xlink" version="1.1"><path d="M0 115L13.7 114C27.3 113 54.7 111 82 100C109.3 89 136.7 69 163.8 59C191 49 218 49 245.2 49C272.3 49 299.7 49 327 61C354.3 73 381.7 97 409 96C436.3 95 463.7 69 491 67C518.3 65 545.7 87 573 101C600.3 115 627.7 121 654.8 110C682 99 709 71 736.2 71C763.3 71 790.7 99 818 109C845.3 119 872.7 111 886.3 107L900 103L900 0L886.3 0C872.7 0 845.3 0 818 0C790.7 0 763.3 0 736.2 0C709 0 682 0 654.8 0C627.7 0 600.3 0 573 0C545.7 0 518.3 0 491 0C463.7 0 436.3 0 409 0C381.7 0 354.3 0 327 0C299.7 0 272.3 0 245.2 0C218 0 191 0 163.8 0C136.7 0 109.3 0 82 0C54.7 0 27.3 0 13.7 0L0 0Z" fill="#6198ff"></path><path d="M0 355L13.7 342C27.3 329 54.7 303 82 274C109.3 245 136.7 213 163.8 197C191 181 218 181 245.2 210C272.3 239 299.7 297 327 302C354.3 307 381.7 259 409 244C436.3 229 463.7 247 491 265C518.3 283 545.7 301 573 301C600.3 301 627.7 283 654.8 273C682 263 709 261 736.2 281C763.3 301 790.7 343 818 361C845.3 379 872.7 373 886.3 370L900 367L900 101L886.3 105C872.7 109 845.3 117 818 107C790.7 97 763.3 69 736.2 69C709 69 682 97 654.8 108C627.7 119 600.3 113 573 99C545.7 85 518.3 63 491 65C463.7 67 436.3 93 409 94C381.7 95 354.3 71 327 59C299.7 47 272.3 47 245.2 47C218 47 191 47 163.8 57C136.7 67 109.3 87 82 98C54.7 109 27.3 111 13.7 112L0 113Z" fill="#3c80ff"></path><path d="M0 409L13.7 400C27.3 391 54.7 373 82 344C109.3 315 136.7 275 163.8 263C191 251 218 267 245.2 294C272.3 321 299.7 359 327 360C354.3 361 381.7 325 409 315C436.3 305 463.7 321 491 342C518.3 363 545.7 389 573 386C600.3 383 627.7 351 654.8 337C682 323 709 327 736.2 347C763.3 367 790.7 403 818 415C845.3 427 872.7 415 886.3 409L900 403L900 365L886.3 368C872.7 371 845.3 377 818 359C790.7 341 763.3 299 736.2 279C709 259 682 261 654.8 271C627.7 281 600.3 299 573 299C545.7 299 518.3 281 491 263C463.7 245 436.3 227 409 242C381.7 257 354.3 305 327 300C299.7 295 272.3 237 245.2 208C218 179 191 179 163.8 195C136.7 211 109.3 243 82 272C54.7 301 27.3 327 13.7 340L0 353Z" fill="#0066ff"></path><path d="M0 529L13.7 519C27.3 509 54.7 489 82 489C109.3 489 136.7 509 163.8 510C191 511 218 493 245.2 492C272.3 491 299.7 507 327 509C354.3 511 381.7 499 409 488C436.3 477 463.7 467 491 471C518.3 475 545.7 493 573 500C600.3 507 627.7 503 654.8 505C682 507 709 515 736.2 521C763.3 527 790.7 531 818 530C845.3 529 872.7 523 886.3 520L900 517L900 401L886.3 407C872.7 413 845.3 425 818 413C790.7 401 763.3 365 736.2 345C709 325 682 321 654.8 335C627.7 349 600.3 381 573 384C545.7 387 518.3 361 491 340C463.7 319 436.3 303 409 313C381.7 323 354.3 359 327 358C299.7 357 272.3 319 245.2 292C218 265 191 249 163.8 261C136.7 273 109.3 313 82 342C54.7 371 27.3 389 13.7 398L0 407Z" fill="#0059dd"></path><path d="M0 601L13.7 601C27.3 601 54.7 601 82 601C109.3 601 136.7 601 163.8 601C191 601 218 601 245.2 601C272.3 601 299.7 601 327 601C354.3 601 381.7 601 409 601C436.3 601 463.7 601 491 601C518.3 601 545.7 601 573 601C600.3 601 627.7 601 654.8 601C682 601 709 601 736.2 601C763.3 601 790.7 601 818 601C845.3 601 872.7 601 886.3 601L900 601L900 515L886.3 518C872.7 521 845.3 527 818 528C790.7 529 763.3 525 736.2 519C709 513 682 505 654.8 503C627.7 501 600.3 505 573 498C545.7 491 518.3 473 491 469C463.7 465 436.3 475 409 486C381.7 497 354.3 509 327 507C299.7 505 272.3 489 245.2 490C218 491 191 509 163.8 508C136.7 507 109.3 487 82 487C54.7 487 27.3 507 13.7 517L0 527Z" fill="#004cbb"></path></svg>