<svg id="visual" viewBox="0 0 900 600" width="900" height="600" xmlns="http://www.w3.org/2000/svg" xmlns:xlink="http://www.w3.org/1999/xlink" version="1.1"><rect x="0" y="0" width="900" height="600" fill="#001122"></rect><defs><linearGradient id="grad1_0" x1="33.3%" y1="100%" x2="100%" y2="0%"><stop offset="20%" stop-color="#001122" stop-opacity="1"></stop><stop offset="80%" stop-color="#001122" stop-opacity="1"></stop></linearGradient></defs><defs><linearGradient id="grad2_0" x1="0%" y1="100%" x2="66.7%" y2="0%"><stop offset="20%" stop-color="#001122" stop-opacity="1"></stop><stop offset="80%" stop-color="#001122" stop-opacity="1"></stop></linearGradient></defs><g transform="translate(900, 600)"><path d="M-324.5 0C-314.1 -39.5 -303.7 -79.1 -290.1 -120.2C-276.5 -161.3 -259.9 -204 -229.5 -229.5C-199.1 -255 -154.9 -263.3 -114.4 -276.2C-73.9 -289.2 -36.9 -306.9 0 -324.5L0 0Z" fill="#4FACF7"></path></g><g transform="translate(0, 0)"><path d="M324.5 0C320.3 42.1 316 84.2 299.8 124.2C283.6 164.1 255.4 201.9 219.9 219.9C184.4 237.9 141.6 236.2 103.7 250.4C65.8 264.5 32.9 294.5 0 324.5L0 0Z" fill="#4FACF7"></path></g></svg>